<?xml version="1.0" encoding="UTF-8"?><svg id="_层_2" xmlns="http://www.w3.org/2000/svg" xmlns:xlink="http://www.w3.org/1999/xlink" viewBox="0 0 113.39 56.69"><defs><style>.cls-1{fill:url(#_命名的渐变);}.cls-2{fill:#fabe00;}.cls-3{fill:#0046b5;}.cls-4{fill:url(#_命名的渐变_13);}.cls-5{fill:url(#_命名的渐变_11);}.cls-6{fill:url(#_命名的渐变_12);}.cls-7{fill:url(#_命名的渐变_10);}.cls-8{fill:url(#_命名的渐变_5);}.cls-9{fill:url(#_命名的渐变_2);}.cls-10{fill:url(#_命名的渐变_6);}.cls-11{fill:url(#_命名的渐变_4);}.cls-12{fill:url(#_命名的渐变_9);}.cls-13{fill:url(#_命名的渐变_3);}.cls-14{fill:url(#_命名的渐变_8);}.cls-15{fill:url(#_命名的渐变_7);}</style><linearGradient id="_命名的渐变" x1="-229.4" y1="410.69" x2="-228.4" y2="410.69" gradientTransform="translate(5146.99 4207.76) scale(22.42 -10.2)" gradientUnits="userSpaceOnUse"><stop offset="0" stop-color="#036eb8"/><stop offset=".07" stop-color="#0569b4"/><stop offset=".69" stop-color="#123b94"/><stop offset="1" stop-color="#172a88"/></linearGradient><linearGradient id="_命名的渐变_2" x1="-229.53" y1="416.61" x2="-228.53" y2="416.61" gradientTransform="translate(5211.78 5052.75) scale(22.69 -12.05)" gradientUnits="userSpaceOnUse"><stop offset="0" stop-color="#036eb8"/><stop offset=".07" stop-color="#0569b4"/><stop offset=".69" stop-color="#123b94"/><stop offset="1" stop-color="#172a88"/></linearGradient><linearGradient id="_命名的渐变_3" x1="-229.4" y1="410.69" x2="-228.4" y2="410.69" gradientTransform="translate(5147.23 4207.76) scale(22.42 -10.2)" gradientUnits="userSpaceOnUse"><stop offset="0" stop-color="#2ea7e0"/><stop offset=".14" stop-color="#2c9eda"/><stop offset=".37" stop-color="#2887c9"/><stop offset=".66" stop-color="#2160ae"/><stop offset=".99" stop-color="#172c89"/><stop offset="1" stop-color="#172a88"/></linearGradient><linearGradient id="_命名的渐变_4" x1="-229.53" y1="416.61" x2="-228.53" y2="416.61" gradientTransform="translate(5211.78 5053.08) scale(22.69 -12.05)" gradientUnits="userSpaceOnUse"><stop offset="0" stop-color="#2ea7e0"/><stop offset=".14" stop-color="#2c9eda"/><stop offset=".37" stop-color="#2887c9"/><stop offset=".66" stop-color="#2160ae"/><stop offset=".99" stop-color="#172c89"/><stop offset="1" stop-color="#172a88"/></linearGradient><linearGradient id="_命名的渐变_5" x1="-219.97" y1="380.83" x2="-220.97" y2="380.83" gradientTransform="translate(2799.36 2211.08) scale(12.64 -5.75)" gradientUnits="userSpaceOnUse"><stop offset="0" stop-color="#036eb8"/><stop offset=".07" stop-color="#0569b4"/><stop offset=".69" stop-color="#123b94"/><stop offset="1" stop-color="#172a88"/></linearGradient><linearGradient id="_命名的渐变_6" x1="-220.11" y1="391.15" x2="-221.11" y2="391.15" gradientTransform="translate(2820.42 2676.84) scale(12.73 -6.77)" gradientUnits="userSpaceOnUse"><stop offset="0" stop-color="#036eb8"/><stop offset=".07" stop-color="#0569b4"/><stop offset=".69" stop-color="#123b94"/><stop offset="1" stop-color="#172a88"/></linearGradient><linearGradient id="_命名的渐变_7" x1="-219.97" y1="380.84" x2="-220.97" y2="380.84" gradientTransform="translate(2799.12 2211.53) scale(12.64 -5.75)" gradientUnits="userSpaceOnUse"><stop offset="0" stop-color="#2ea7e0"/><stop offset=".15" stop-color="#298ccd"/><stop offset=".41" stop-color="#2162af"/><stop offset=".65" stop-color="#1c439a"/><stop offset=".86" stop-color="#18318d"/><stop offset="1" stop-color="#172a88"/></linearGradient><linearGradient id="_命名的渐变_8" x1="-223.15" y1="391.15" x2="-222.15" y2="391.15" gradientTransform="translate(2820.42 2676.84) scale(12.73 -6.77)" gradientUnits="userSpaceOnUse"><stop offset="0" stop-color="#2ea7e0"/><stop offset=".15" stop-color="#298ccd"/><stop offset=".41" stop-color="#2162af"/><stop offset=".65" stop-color="#1c439a"/><stop offset=".86" stop-color="#18318d"/><stop offset="1" stop-color="#172a88"/></linearGradient><linearGradient id="_命名的渐变_9" x1="-231.84" y1="438.9" x2="-231.68" y2="439.87" gradientTransform="translate(7158.27 17433.49) scale(30.7 -39.63)" gradientUnits="userSpaceOnUse"><stop offset="0" stop-color="#e60012"/><stop offset=".8" stop-color="#f6ad64"/></linearGradient><linearGradient id="_命名的渐变_10" x1="-222.47" y1="430.9" x2="-222.25" y2="431.59" gradientTransform="translate(3162.14 9490.7) scale(14.03 -21.97)" gradientUnits="userSpaceOnUse"><stop offset="0" stop-color="#f6ad64"/><stop offset=".8" stop-color="#e60012"/></linearGradient><linearGradient id="_命名的渐变_11" x1="-232.15" y1="430.95" x2="-232.15" y2="429.95" gradientTransform="translate(7497.7 9036.18) scale(31.92 -20.93)" gradientUnits="userSpaceOnUse"><stop offset=".4" stop-color="#0064c6"/><stop offset="1" stop-color="#00289e"/></linearGradient><linearGradient id="_命名的渐变_12" x1="572.4" y1="218.65" x2="572.4" y2="217.42" gradientTransform="translate(-111.74 396.35) scale(.3 -1.7)" gradientUnits="userSpaceOnUse"><stop offset=".4" stop-color="#0064c6"/><stop offset="1" stop-color="#00289e"/></linearGradient><linearGradient id="_命名的渐变_13" x1="-227.57" y1="431.23" x2="-227.57" y2="430" gradientTransform="translate(4607.57 9085.56) scale(19.98 -21.04)" gradientUnits="userSpaceOnUse"><stop offset=".4" stop-color="#0064c6"/><stop offset="1" stop-color="#00289e"/></linearGradient></defs><g><path class="cls-3" d="M5.7,53.7c-.45-.27-.8-.66-1.04-1.16-.24-.5-.36-1.1-.36-1.78s.12-1.28,.36-1.78c.24-.5,.59-.89,1.04-1.16,.45-.27,.98-.41,1.59-.41s1.14,.14,1.59,.41c.45,.27,.8,.66,1.04,1.16s.36,1.1,.36,1.78-.12,1.28-.36,1.78-.59,.89-1.04,1.16c-.45,.27-.98,.41-1.59,.41s-1.14-.14-1.59-.41Zm2.66-1.51c.26-.35,.4-.83,.4-1.43s-.13-1.08-.4-1.43c-.26-.35-.62-.53-1.08-.53s-.81,.18-1.08,.53c-.26,.35-.4,.83-.4,1.43s.13,1.08,.4,1.43c.26,.35,.62,.53,1.08,.53s.81-.18,1.08-.53Z"/><path class="cls-3" d="M22.76,54h-1.9l-1.86-2.64-.5,.53v2.11h-1.49v-6.48h1.49v2.44l2.1-2.44h2.06l-2.62,2.75,2.72,3.73Z"/><path class="cls-3" d="M32.98,50.71c.49,.07,.85,.23,1.1,.48s.37,.58,.37,.99c0,.59-.23,1.04-.7,1.35-.46,.31-1.12,.47-1.98,.47h-2.45v-6.48h2.37c.79,0,1.4,.15,1.82,.44,.42,.29,.64,.71,.64,1.24,0,.75-.39,1.23-1.17,1.46v.05Zm-2.17-1.85v1.18h.7c.36,0,.63-.05,.82-.16s.29-.26,.29-.46c0-.18-.09-.32-.28-.42s-.46-.15-.82-.15h-.7Zm.78,3.79c.43,0,.76-.06,.99-.17,.23-.11,.35-.28,.35-.49,0-.2-.12-.35-.35-.45-.23-.1-.56-.16-1-.16h-.78v1.26h.78Z"/><path class="cls-3" d="M42.67,51.39v1.26h2.9v1.34h-4.39v-6.48h4.3v1.34h-2.81v1.18h2.66v1.34h-2.66Z"/><path class="cls-3" d="M55.19,54h-1.49v-5.09h-1.74v-1.39h4.96v1.39h-1.74v5.09Z"/><path class="cls-3" d="M63.47,54v-1.6h1.6v1.6h-1.6Z"/><path class="cls-3" d="M77.26,52.5c-.24,.52-.58,.92-1,1.19-.43,.28-.93,.42-1.49,.42s-1.1-.14-1.56-.43-.82-.69-1.08-1.2-.39-1.1-.39-1.75,.13-1.21,.39-1.72c.26-.5,.63-.9,1.1-1.18,.47-.28,1.01-.42,1.62-.42,1.09,0,1.89,.54,2.4,1.61l-1.32,.58c-.11-.26-.26-.46-.46-.59-.2-.13-.44-.2-.71-.2-.29,0-.54,.08-.77,.25s-.4,.39-.53,.68c-.12,.29-.19,.62-.19,1s.06,.73,.19,1.03c.13,.3,.3,.54,.53,.71s.48,.26,.77,.26c.51,0,.9-.26,1.18-.79l1.32,.58Z"/><path class="cls-3" d="M84.97,53.7c-.45-.27-.8-.66-1.04-1.16-.24-.5-.36-1.1-.36-1.78s.12-1.28,.36-1.78c.24-.5,.59-.89,1.04-1.16,.45-.27,.98-.41,1.59-.41s1.14,.14,1.59,.41c.45,.27,.8,.66,1.04,1.16,.24,.5,.36,1.1,.36,1.78s-.12,1.28-.36,1.78c-.24,.5-.59,.89-1.04,1.16-.45,.27-.98,.41-1.59,.41s-1.14-.14-1.59-.41Zm2.66-1.51c.26-.35,.4-.83,.4-1.43s-.13-1.08-.4-1.43c-.26-.35-.62-.53-1.08-.53s-.81,.18-1.08,.53c-.26,.35-.4,.83-.4,1.43s.13,1.08,.4,1.43c.26,.35,.62,.53,1.08,.53s.81-.18,1.08-.53Z"/><path class="cls-3" d="M97.72,54h-1.44v-6.48h1.32l2.03,3.04h.05l2.03-3.04h1.32v6.48h-1.44v-3.72h-.05l-1.33,1.9h-1.12l-1.33-1.87h-.05v3.69Z"/></g><g><path class="cls-1" d="M15.61,14.5c5.04,0,9.49,3.41,10.97,8.4,.04,.12,.07,.25,.1,.38-.2,.53-1.83,.95-3.82,.95-1.86,0-3.77-.85-3.77-.85-.02-.07-.05-.14-.08-.21-1.25-3.34-4.5-5.4-7.94-5.04-3.43,.36-6.22,3.04-6.81,6.57,.81-5.85,5.64-10.2,11.35-10.2"/><path class="cls-9" d="M26.86,29.19l-.04,.15c-1.44,5.77-6.84,9.54-12.59,8.79-5.75-.75-10.06-5.78-10.06-11.74v-.22c.04,3.75,2.63,6.95,6.2,7.69,3.57,.74,7.16-1.2,8.61-4.64,.04-.1,.09-.2,.12-.31,.45-.46,1.98-.81,3.81-.81,2.17,0,3.94,.48,3.94,1.08h0Z"/><path class="cls-13" d="M15.61,14.5c-5.7,0-10.54,4.35-11.35,10.2,.09-.5,.22-1,.4-1.48,1.36-4.26,5.31-7.06,9.64-6.82,4.33,.24,7.97,3.44,8.89,7.83,1.84-.04,3.31-.44,3.49-.95-.03-.13-.07-.25-.1-.38-1.48-5-5.93-8.41-10.97-8.41"/><path class="cls-11" d="M23.35,28.12c-.87,5-5.28,8.52-10.21,8.15-4.93-.37-8.79-4.51-8.94-9.59-.01-.16-.03-.33-.03-.5v.22c0,5.96,4.31,10.99,10.06,11.74,5.75,.75,11.15-3.02,12.59-8.79,0,0,.03-.1,.04-.15,0-.56-1.54-1.01-3.51-1.07Z"/><path class="cls-8" d="M11.4,19.6c-2.84,0-5.35,1.92-6.18,4.73-.02,.07-.04,.14-.06,.21,.11,.3,1.04,.54,2.16,.54,.73-.03,1.45-.19,2.13-.48,.01-.04,.03-.08,.04-.12,.71-1.88,2.54-3.04,4.48-2.84,1.94,.2,3.51,1.71,3.84,3.7-.46-3.3-3.18-5.74-6.4-5.75"/><path class="cls-10" d="M5.06,27.79s.02,.08,.02,.09c.83,3.24,3.85,5.35,7.06,4.93,3.21-.42,5.63-3.24,5.66-6.59v-.12c-.02,2.12-1.48,3.93-3.48,4.35-2.01,.42-4.02-.68-4.83-2.63-.02-.06-.05-.11-.07-.17-.25-.26-1.11-.46-2.14-.46-1.22,0-2.21,.28-2.21,.61h0Z"/><path class="cls-15" d="M11.4,19.6c3.22,0,5.94,2.45,6.4,5.75-.05-.28-.12-.56-.22-.84-.76-2.41-2.99-3.99-5.44-3.86-2.44,.13-4.5,1.95-5.01,4.43-1.04-.03-1.87-.25-1.97-.53,.02-.07,.04-.14,.06-.21,.83-2.81,3.34-4.74,6.18-4.74"/><path class="cls-14" d="M7.03,27.18c.04,.2,.08,.41,.14,.61,.74,2.66,3.24,4.37,5.9,4.01,2.65-.35,4.66-2.66,4.72-5.43,0-.09,.01-.19,.01-.28v.12c-.02,3.35-2.44,6.17-5.65,6.59-3.21,.42-6.23-1.69-7.06-4.93l-.02-.08c0-.32,.86-.57,1.97-.61Z"/><g><path class="cls-2" d="M44.94,27.28c-.72-.69-1.68-1.08-2.68-1.09,.94,0,1.85-.31,2.6-.86,.84-.73,1.31-1.79,1.29-2.9,0,1.12,.39,2.2,1.13,3.04,.7,.64,1.61,.99,2.55,.98-.92,.03-1.81,.33-2.56,.86-.86,.72-1.35,1.78-1.33,2.9,.07-1.07-.29-2.12-1-2.93h0Z"/><path class="cls-12" d="M56.26,40.06c-11.94-2.61-19.48-8.07-18.61-11.84,1.29-5.64,23.35-23.87,1.59-26.43,0,0,7.04,10.48-4.28,21.8l2.85-13.37-9.56,4.34,2.18,.05-4.88,26.81,6.53-4.31c.42-2.66,.74-4.38,.96-5.15,4.83,6.47,12.56,9.17,23.21,8.09Z"/><path class="cls-7" d="M39.34,1.79s7.08,10.53-4.39,21.87l-.1,.1c3.29-.84,6.76-2.83,9.77-5.84,4.83-6.9,8.25-14.54-5.28-16.13Z"/></g><path class="cls-5" d="M89.63,15.9h-14.53l-3.76,20.93h15.08l-.46-5h-8.57l.58-3.25h6.31l2.09-4.97h-7.49l.46-2.71h12.31l-2.89,15.93h5.14l2.93-15.93h3.08c.74,0,1.24-.39,1.52-.99l1.83-4.01h-13.62Z"/><g><path class="cls-6" d="M60.71,24.94l-.3,1.7c.11-.6,.22-1.17,.3-1.7h0Z"/><path class="cls-4" d="M68.99,26.75c-.67-.53-1.42-.85-2.22-1.04-.05-.01-.1-.05-.16-.07,.04-.02,.09-.06,.13-.07,.42-.11,.85-.2,1.27-.33,.99-.32,1.83-.86,2.41-1.74,.64-.98,.92-2.1,.86-3.33-.07-1.7-.99-3.02-2.56-3.75-.88-.41-1.78-.54-2.69-.51l-1.49,.02s-.07,0-.11,0h-4.26c-1.38,.01-2.19,.02-3.57,.02-1.2,0-1.37,.14-1.61,1.03l-3.66,19.62c-.06,.26,.04,.33,.16,.34,.05,0,.09,0,.13,0,2.5,0,3,0,5.49,0,1.67,0,1.62-1.09,1.71-1.67l1.87-10.33c.03-.19,.07-.37,.09-.56,.03-.38-.31-.12-.43-.01-.98,.94-1.4,1.49-2.24,2.43-.5,.57-1,1.14-1.49,1.71-.16,.19-.46,.03-.42-.21l.93-5.01c.07-.37,.25-.72,.52-.98,.13-.12,.25-.24,.46-.45,3.71-3.51,6.9-5.48,7.67-5.91,0,.03-.02,.05-.02,.08l-2.94,16.18-.62,3.83c-.06,.39,.21,.76,.6,.82,.05,0,.09,0,.14,0h0c1.18-.05,2.73-.19,3.83-.56,1.8-.6,3.06-1.75,3.63-3.61,.33-1.08,.49-2.19,.22-3.37-.22-1.03-.8-1.95-1.64-2.6h0Z"/></g></g></svg>